{"title":"The Block - S12E21 - Master Bedroom Week Begins","uid":15897922,"size":395348544,"categoryP":"video","categoryS":"tv_shows","magnet":"?xt=urn:btih:007dacadb70825d0640808f239e08c6a3500280c&amp;dn=The+Block+-+S12E21+-+Master+Bedroom+Week+Begins&amp;tr=udp%3A%2F%2Ftracker.leechers-paradise.org%3A6969&amp;tr=udp%3A%2F%2Fzer0day.ch%3A1337&amp;tr=udp%3A%2F%2Fopen.demonii.com%3A1337&amp;tr=udp%3A%2F%2Ftracker.coppersurfer.tk%3A6969&amp;tr=udp%3A%2F%2Fexodus.desync.com%3A6969","seeders":19,"leechers":15,"uploader":"Bullrout","files":1,"time":1474978284,"description":"The Block - S12E21 - Master Bedroom Week Begins\r\n\r\nThe teams are battling it out for the most luxurious master bedrooms and walk in wardrobes they can afford. Dwindling budgets and tight deadlines keep everyone on their toes. The buyers jury judges the best apartment so far.\r\n\r\nComplete name : The Block - S12E21 - Master Bedroom Week Begins.mp4\r\nFormat : MPEG-4\r\nFormat profile : Base Media / Version 2\r\nCodec ID : mp42 (mp42/isom/avc1)\r\nFile size : 377 MiB\r\nDuration : 47 min 29 s\r\nOverall bit rate mode : Variable\r\nOverall bit rate : 1 110 kb/s\r\n\r\nVideo\r\nID : 2\r\nFormat : AVC\r\nFormat/Info : Advanced Video Codec\r\nFormat profile :   \r\nFormat settings, CABAC : Yes\r\nFormat settings, ReFrames : 3 frames\r\nCodec ID : avc1\r\nCodec ID/Info : Advanced Video Coding\r\nDuration : 47 min 29 s\r\nBit rate mode : Variable\r\nBit rate : 979 kb/s\r\nMaximum bit rate : 1 000 kb/s\r\nWidth : 720 pixels\r\nHeight : 404 pixels\r\nDisplay aspect ratio : 16:9\r\nOriginal display aspect ratio : 16:9\r\nFrame rate mode : Constant\r\nFrame rate : 25.000 FPS\r\nStandard : PAL\r\nColor space : YUV\r\nChroma subsampling : 4:2:0\r\nBit depth : 8 bits\r\nScan type : Progressive\r\nBits/(Pixel*Frame) : 0.135\r\nStream size : 332 MiB (88%)\r\nWriting library : x264 core 112\r\nColor range : Limited\r\nColor primaries : BT.601 PAL\r\nTransfer characteristics : BT.470 System B, BT.470 System G\r\nMatrix coefficients : BT.601\r\n\r\nAudio\r\nID : 1\r\nFormat : AAC\r\nFormat/Info : Advanced Audio Codec\r\nFormat profile : LC\r\nCodec ID : 40\r\nDuration : 47 min 28 s\r\nBit rate mode : Variable\r\nBit rate : 128 kb/s\r\nMaximum bit rate : 576 kb/s\r\nChannel(s) : 2 channels\r\nChannel positions : Front: L R\r\nSampling rate : 48.0 kHz\r\nFrame rate : 46.875 FPS (1024 spf)\r\nCompression mode : Lossy\r\nStream size : 43.5 MiB (12%)","torrent":{"xt":"urn:btih:007dacadb70825d0640808f239e08c6a3500280c","amp;dn":"The+Block+-+S12E21+-+Master+Bedroom+Week+Begins","amp;tr":["udp%3A%2F%2Ftracker.leechers-paradise.org%3A6969","udp%3A%2F%2Fzer0day.ch%3A1337","udp%3A%2F%2Fopen.demonii.com%3A1337","udp%3A%2F%2Ftracker.coppersurfer.tk%3A6969","udp%3A%2F%2Fexodus.desync.com%3A6969"],"infoHash":"007dacadb70825d0640808f239e08c6a3500280c","infoHashBuffer":{"type":"Buffer","data":[0,125,172,173,183,8,37,208,100,8,8,242,57,224,140,106,53,0,40,12]},"announce":[],"urlList":[]}}